<svg xmlns="http://www.w3.org/2000/svg" viewBox="0 0 128 128">
  <defs>
    <linearGradient id="bg" x1="0%" y1="0%" x2="100%" y2="100%">
      <stop offset="0%" style="stop-color:#0f172a;stop-opacity:1" />
      <stop offset="100%" style="stop-color:#1e293b;stop-opacity:1" />
    </linearGradient>
    <linearGradient id="quote" x1="0%" y1="0%" x2="100%" y2="100%">
      <stop offset="0%" style="stop-color:#f59e0b;stop-opacity:1" />
      <stop offset="50%" style="stop-color:#fbbf24;stop-opacity:1" />
      <stop offset="100%" style="stop-color:#d97706;stop-opacity:1" />
    </linearGradient>
  </defs>

  <!-- Background -->
  <rect width="128" height="128" rx="24" fill="url(#bg)" />

  <!-- Subtle background glow -->
  <circle cx="64" cy="64" r="45" fill="url(#quote)" opacity="0.06" />

  <!-- Opening quotation mark (left) -->
  <g transform="translate(36, 55)">
    <path d="M 0,0 Q -4,-2 -6,-6 Q -8,-10 -8,-16 L -8,-18 L -2,-18 L -2,-16 Q -2,-12 0,-10 Q 2,-8 6,-8 L 6,-2 Q 2,0 0,0 Z"
          fill="url(#quote)" />
    <path d="M 14,0 Q 10,-2 8,-6 Q 6,-10 6,-16 L 6,-18 L 12,-18 L 12,-16 Q 12,-12 14,-10 Q 16,-8 20,-8 L 20,-2 Q 16,0 14,0 Z"
          fill="url(#quote)" />
  </g>

  <!-- Closing quotation mark (right) -->
  <g transform="translate(92, 73) scale(-1, -1)">
    <path d="M 0,0 Q -4,-2 -6,-6 Q -8,-10 -8,-16 L -8,-18 L -2,-18 L -2,-16 Q -2,-12 0,-10 Q 2,-8 6,-8 L 6,-2 Q 2,0 0,0 Z"
          fill="url(#quote)" />
    <path d="M 14,0 Q 10,-2 8,-6 Q 6,-10 6,-16 L 6,-18 L 12,-18 L 12,-16 Q 12,-12 14,-10 Q 16,-8 20,-8 L 20,-2 Q 16,0 14,0 Z"
          fill="url(#quote)" />
  </g>
</svg>